<?xml version="1.0" standalone="no"?>
<!DOCTYPE svg PUBLIC "-//W3C//DTD SVG 1.1//EN" "http://www.w3.org/Graphics/SVG/1.1/DTD/svg11.dtd" >
<svg xmlns="http://www.w3.org/2000/svg">
<metadata></metadata>
<defs>
<font id="fs_lolaregular" horiz-adv-x="1079" >
<font-face units-per-em="2048" ascent="1536" descent="-512" />
<missing-glyph horiz-adv-x="460" />
<glyph unicode="&#xfb01;" horiz-adv-x="1167" d="M45 877v116h145v137q0 153 66 222q70 73 213 73q107 0 186 -28l-22 -107q-65 21 -135 21q-84 0 -117 -41q-20 -25 -26.5 -58.5t-6.5 -93.5v-125h621v-803q0 -50 11 -68t42 -18q28 0 61 19l-6 -103q-44 -28 -112 -28q-80 0 -119 45q-35 41 -35 129v711h-463v-877h-158v877 h-145zM778 1272q0 41 30 70.5t71 29.5t70.5 -29.5t29.5 -70.5t-29.5 -71t-70.5 -30t-71 30t-30 71z" />
<glyph unicode="&#xfb02;" horiz-adv-x="1173" d="M45 877v116h145v137q0 153 66 222q70 73 215 73q99 0 172 -28v-113q-69 27 -147 27q-82 0 -115 -41q-19 -22 -26 -55.5t-7 -94.5v-127h248v-116h-248v-877h-158v877h-145zM815 166v1235h158v-1211q0 -50 11 -68t42 -18q28 0 61 19l-8 -103q-44 -28 -110 -28 q-80 0 -119 45q-35 41 -35 129z" />
<glyph horiz-adv-x="2048" />
<glyph horiz-adv-x="2048" />
<glyph unicode="&#xd;" horiz-adv-x="2048" />
<glyph unicode=" "  horiz-adv-x="460" />
<glyph unicode="&#x09;" horiz-adv-x="460" />
<glyph unicode="&#xa0;" horiz-adv-x="460" />
<glyph unicode="!" horiz-adv-x="575" d="M188 90q0 41 29 69.5t70 28.5t70.5 -28.5t29.5 -69.5t-29.5 -70.5t-70.5 -29.5t-70 29.5t-29 70.5zM190 1198v21q0 50 23 73t74 23t73.5 -23t22.5 -73v-21l-59 -817h-74z" />
<glyph unicode="&#x22;" horiz-adv-x="653" d="M106 1239q0 76 84 76q82 0 82 -76q0 -17 -4 -45l-49 -301h-59l-49 301q-5 35 -5 45zM381 1239q0 76 82 76q84 0 84 -76q0 -17 -4 -45l-49 -301h-60l-49 301q-4 28 -4 45z" />
<glyph unicode="#" d="M92 422v119h225v219h-225v117h225v419h119v-419h213v419h119v-419h221v-117h-221v-219h221v-119h-221v-422h-119v422h-213v-422h-119v422h-225zM436 541h213v219h-213v-219z" />
<glyph unicode="$" d="M141 969q0 141 97 235q91 88 254 107v202h106v-198q130 -3 260 -47l-6 -129q-123 47 -254 53v-471q43 -16 72.5 -28.5t68.5 -32.5t65 -39.5t54 -49t44.5 -62t27 -76.5t10.5 -95q0 -158 -94 -244t-248 -106v-209h-106v203q-185 0 -345 69l7 139q156 -86 338 -86v488 q-46 17 -73.5 28t-69.5 31.5t-67.5 39.5t-55 48t-46 61t-28 75.5t-11.5 93.5zM297 987q0 -85 50.5 -135.5t144.5 -89.5v424q-93 -15 -144 -67t-51 -132zM598 115q90 20 138 73.5t48 135.5q0 84 -48 135.5t-138 91.5v-436z" />
<glyph unicode="%" horiz-adv-x="1673" d="M141 932q0 178 78 280.5t215 102.5t215 -102.5t78 -280.5t-78 -280.5t-215 -102.5t-215 102.5t-78 280.5zM268 932q0 -139 44 -212t122 -73t123 73.5t45 211.5q0 139 -45 213t-123 74t-122 -74t-44 -213zM551 -18l442 1333h127l-442 -1333h-127zM946 365q0 178 78 280.5 t215 102.5t215 -102.5t78 -280.5t-78 -280.5t-215 -102.5t-215 102.5t-78 280.5zM1071 365q0 -139 45 -213t123 -74t122 74t44 213t-44 211.5t-122 72.5t-123 -73t-45 -211z" />
<glyph unicode="&#x26;" horiz-adv-x="1366" d="M127 373q0 129 69.5 227t190.5 131q-78 33 -122 104t-44 160q0 146 100 233t273 87q164 0 287 -55l-7 -115q-115 59 -253 59q-118 0 -183 -55t-65 -154q0 -106 76 -166q72 -57 219 -57h567v-110h-211v-390q0 -99 25 -135q27 -43 102 -43q69 0 145 37l-6 -106 q-71 -43 -174 -43q-94 0 -154.5 44.5t-70.5 123.5q-51 -80 -141.5 -124t-206.5 -44q-193 0 -304.5 108t-111.5 283zM289 381q0 -125 75.5 -204t202.5 -79q181 0 260 135q52 86 52 242v187h-256q-158 0 -236 -60q-98 -73 -98 -221z" />
<glyph unicode="'" horiz-adv-x="378" d="M106 1239q0 76 84 76q82 0 82 -76q0 -17 -4 -45l-49 -301h-59l-49 301q-5 35 -5 45z" />
<glyph unicode="(" horiz-adv-x="600" d="M178 506q0 330 99.5 567t293.5 330l35 -53q-148 -112 -206 -308.5t-58 -535.5t58 -534.5t206 -307.5l-35 -55q-194 93 -293.5 330t-99.5 567z" />
<glyph unicode=")" horiz-adv-x="600" d="M-6 -336q148 112 206 307.5t58 534.5t-58 535.5t-206 308.5l35 53q194 -93 293.5 -330t99.5 -567t-99.5 -567t-293.5 -330z" />
<glyph unicode="*" horiz-adv-x="901" d="M115 795q0 42 61 63l230 84l-230 84q-61 21 -61 64q0 26 20 50.5t45 24.5q28 0 60 -28l188 -154l-43 238q-4 20 -4 28q0 32 18.5 49t51.5 17q67 0 67 -66q0 -8 -4 -28l-43 -238l188 154q32 28 62 28q25 0 45 -24.5t20 -50.5q0 -43 -61 -64l-229 -84l229 -84 q61 -21 61 -63q0 -26 -20 -51t-45 -25q-29 0 -62 29l-188 153l43 -237q4 -20 4 -29q0 -66 -67 -66q-33 0 -51.5 17t-18.5 49q0 9 4 29l43 237l-188 -153q-33 -29 -60 -29q-25 0 -45 25t-20 51z" />
<glyph unicode="+" horiz-adv-x="1044" d="M209 598v117h256v256h117v-256h256v-117h-256v-256h-117v256h-256z" />
<glyph unicode="," horiz-adv-x="471" d="M96 -205q51 41 86 94t39 97q-40 9 -64 36t-24 64q0 41 26.5 68.5t71.5 27.5q51 0 80 -32.5t29 -86.5q0 -89 -54.5 -177t-144.5 -140z" />
<glyph unicode="-" horiz-adv-x="692" d="M117 426v129h458v-129h-458z" />
<glyph unicode="." horiz-adv-x="471" d="M135 90q0 41 29.5 69.5t71.5 28.5q41 0 70.5 -28.5t29.5 -69.5t-29.5 -70.5t-70.5 -29.5t-71 29.5t-30 70.5z" />
<glyph unicode="/" horiz-adv-x="595" d="M12 -18l428 1333h146l-430 -1333h-144z" />
<glyph unicode="0" d="M119 649q0 330 107.5 498t314.5 168t314.5 -168t107.5 -498t-107.5 -498.5t-314.5 -168.5t-314.5 168.5t-107.5 498.5zM287 649q0 -283 59 -415t195 -132t195 132t59 415t-59 414t-195 131t-195 -131t-59 -414z" />
<glyph unicode="1" d="M246 1114l317 182h101v-1183h194v-113h-561v113h209v1011l-201 -114z" />
<glyph unicode="2" d="M168 1036q37 133 139 206t250 73q187 0 287 -103q92 -95 92 -251q0 -82 -31.5 -151.5t-82.5 -120.5t-112.5 -98t-124 -95t-115.5 -99t-88 -122t-40 -154h596l-16 -121h-738v49q0 115 32.5 209.5t84.5 158t115 117.5t126 99.5t115 91.5t84.5 106t32.5 130q0 108 -57 170.5 t-168 62.5q-180 0 -246 -197z" />
<glyph unicode="3" d="M141 1051q40 126 139.5 195t245.5 69q171 0 266 -90t95 -238q0 -103 -50 -177.5t-137 -109.5q120 -30 182 -115.5t62 -209.5q0 -186 -120 -289.5t-335 -103.5q-88 0 -175 20.5t-146 54.5l8 136q63 -40 145 -65.5t162 -25.5q142 0 219.5 72.5t77.5 202.5q0 118 -84 180 t-221 64v112q114 5 184 71t70 177q0 97 -54.5 155t-156.5 58q-181 0 -246 -180z" />
<glyph unicode="4" d="M96 356l512 961l129 -66l-452 -848h399v252h145v-252h170v-127h-170v-276h-145v276h-545z" />
<glyph unicode="5" d="M186 51l9 127q124 -76 280 -76q147 0 225 76.5t78 224.5q0 146 -82 213q-76 62 -278 62h-199v618h623v-120h-492v-379h96q130 0 214 -18t145 -60q133 -93 133 -313q0 -196 -114.5 -310t-331.5 -114q-181 0 -306 69z" />
<glyph unicode="6" d="M135 575q0 118 17 223.5t56.5 201t98 165t147.5 110t199 40.5q124 0 217 -43l-4 -113q-91 43 -202 43q-146 0 -232 -100q-93 -105 -123 -357q120 101 283 101q173 0 276 -102t103 -312q0 -200 -109 -325t-305 -125q-95 0 -169.5 32.5t-121 87t-77 132t-42.5 161 t-12 180.5zM299 612q0 -71 3.5 -127.5t13 -118.5t28.5 -108t47 -84t71.5 -58t100.5 -20q87 0 144.5 48t80.5 120.5t23 165.5q0 161 -60 229t-184 68q-68 0 -140 -31t-128 -84z" />
<glyph unicode="7" d="M154 1176v120h741l33 -79l-475 -1217h-166l479 1176h-612z" />
<glyph unicode="8" d="M145 348q0 114 70 207t184 135q-192 111 -192 316q0 142 93 225.5t255 83.5q166 0 257 -80t91 -219q0 -109 -57 -189t-152 -127q59 -29 102.5 -58t84 -71.5t61.5 -100.5t21 -130q0 -158 -103.5 -258t-310.5 -100q-193 0 -298.5 100t-105.5 266zM297 352q0 -124 68.5 -190 t187.5 -66q123 0 189.5 65t66.5 177q0 56 -16 96.5t-56 75t-89 61.5t-134 64q-105 -38 -161 -111t-56 -172zM348 1022q0 -95 56 -156t174 -116q87 40 137.5 104t50.5 147q0 97 -53.5 152t-159.5 55q-94 0 -149.5 -51.5t-55.5 -134.5z" />
<glyph unicode="9" d="M109 864q0 200 109 325.5t304 125.5q95 0 169.5 -32.5t121 -87t77 -132.5t42.5 -161.5t12 -180.5q0 -118 -17 -223.5t-56.5 -201t-98 -164.5t-147.5 -109.5t-199 -40.5q-124 0 -217 43l4 112q91 -43 203 -43q144 0 231 101q93 106 123 356q-119 -100 -283 -100 q-173 0 -275.5 101.5t-102.5 311.5zM268 866q0 -161 60 -229t184 -68q68 0 140 31t128 84q0 71 -3.5 127.5t-13 118.5t-28.5 108t-47 84t-71.5 58t-100.5 20q-87 0 -144.5 -48t-80.5 -120.5t-23 -165.5z" />
<glyph unicode=":" horiz-adv-x="468" d="M135 90q0 41 28.5 69.5t69.5 28.5q42 0 71.5 -28.5t29.5 -69.5t-30 -70.5t-71 -29.5t-69.5 29.5t-28.5 70.5zM135 682q0 41 28.5 69.5t69.5 28.5q42 0 71.5 -28.5t29.5 -69.5t-29.5 -69.5t-71.5 -28.5q-41 0 -69.5 28.5t-28.5 69.5z" />
<glyph unicode=";" horiz-adv-x="471" d="M96 -205q51 41 86 94t39 97q-40 9 -64 36t-24 64q0 41 26.5 68.5t71.5 27.5q51 0 80 -32.5t29 -86.5q0 -89 -54.5 -177t-144.5 -140zM133 682q0 41 28.5 70.5t69.5 29.5t71 -29.5t30 -70.5t-30 -70.5t-71 -29.5t-69.5 29.5t-28.5 70.5z" />
<glyph unicode="&#x3c;" horiz-adv-x="1044" d="M209 602v109l629 256v-127l-476 -185l476 -178v-129z" />
<glyph unicode="=" horiz-adv-x="1044" d="M209 428v119h629v-119h-629zM209 766v117h629v-117h-629z" />
<glyph unicode="&#x3e;" horiz-adv-x="1044" d="M209 348v129l475 178l-475 185v127l629 -256v-109z" />
<glyph unicode="?" horiz-adv-x="972" d="M86 1032q27 135 129 209t244 74q182 0 282.5 -97t100.5 -264q0 -310 -344 -360l-21 -215h-84l-18 297l22 2q145 12 217 78t72 194q0 110 -62.5 176t-168.5 66q-188 0 -238 -188zM338 90q0 41 29.5 69.5t70.5 28.5q42 0 71.5 -28.5t29.5 -69.5t-30 -70.5t-71 -29.5 t-70.5 29.5t-29.5 70.5z" />
<glyph unicode="@" horiz-adv-x="1546" d="M119 655q0 296 183 478t478 182q285 0 462 -165.5t177 -430.5q0 -204 -88.5 -330.5t-238.5 -126.5q-65 0 -109 24.5t-59 67.5q-36 -41 -90.5 -63.5t-110.5 -22.5q-116 0 -183 63.5t-67 178.5t73.5 178.5t207.5 63.5q60 0 147 -15v41q0 74 -38.5 109t-117.5 35 q-105 0 -215 -50l-2 105q110 47 230 47q158 0 227 -78q53 -59 53 -174v-317q0 -90 78 -90q79 0 125.5 95t46.5 249q0 229 -140 367t-364 138q-253 0 -393.5 -153.5t-140.5 -407.5q0 -277 150.5 -427t422.5 -150q140 0 284 37t243 90l-7 -94q-100 -53 -247 -90t-281 -37 q-322 0 -509 175.5t-187 497.5zM608 514q0 -70 39.5 -108.5t100.5 -38.5q79 0 116 45.5t37 138.5v96q-51 15 -125 15q-80 0 -124 -37.5t-44 -110.5z" />
<glyph unicode="A" horiz-adv-x="1204" d="M82 0l395 1176h-119v120h326l467 -1296h-172l-105 299h-530l-96 -299h-166zM383 416h453l-207 592q-24 66 -29 118h-2q-2 -48 -23 -118z" />
<glyph unicode="B" horiz-adv-x="1150" d="M61 1176v120h480q108 0 182 -14.5t131 -52.5q62 -40 93.5 -106t31.5 -146q0 -210 -164 -287q240 -62 240 -319q0 -199 -123.5 -285t-368.5 -86h-389v1176h-113zM344 121h191q192 0 268 59q74 57 74 193q0 121 -64 176q-43 39 -106 52t-168 13h-195v-493zM344 725h182 q87 0 140.5 13t87.5 44q61 58 61 179q0 53 -20.5 100.5t-61.5 73.5q-35 24 -82 32.5t-127 8.5h-180v-451z" />
<glyph unicode="C" horiz-adv-x="1114" d="M96 659q0 309 137 482.5t388 173.5q153 0 256.5 -75.5t138.5 -219.5l-156 -37q-30 101 -87 154t-157 53q-167 0 -254.5 -135.5t-87.5 -388.5q0 -99 10.5 -179t37.5 -151.5t70 -119t110 -75.5t155 -28q86 0 177.5 26.5t154.5 67.5l-6 -135q-67 -40 -163 -65t-189 -25 q-266 0 -400.5 174t-134.5 503z" />
<glyph unicode="D" horiz-adv-x="1251" d="M61 1176v120h437q220 0 364 -65q149 -67 221 -204t72 -370q0 -409 -217 -557q-145 -100 -401 -100h-363v1176h-113zM344 121h168q120 0 203.5 26t142.5 86q119 122 119 431q0 191 -49.5 301.5t-163.5 162.5q-102 48 -281 48h-139v-1055z" />
<glyph unicode="E" horiz-adv-x="1038" d="M164 0v1296h737v-120h-567v-459h459v-117h-459v-479h612l-16 -121h-766z" />
<glyph unicode="F" horiz-adv-x="974" d="M164 0v1296h737v-120h-567v-459h459v-117h-459v-600h-170z" />
<glyph unicode="G" horiz-adv-x="1216" d="M96 651q0 309 142 486.5t399 177.5q163 0 278 -79t146 -226l-158 -35q-31 104 -95.5 159.5t-176.5 55.5q-171 0 -264 -138.5t-93 -385.5q0 -555 369 -555q74 0 141.5 24.5t114.5 63.5v266h-180v113h344v-578h-102l-33 80q-135 -98 -322 -98q-243 0 -376.5 171t-133.5 498 z" />
<glyph unicode="H" horiz-adv-x="1249" d="M164 0v1296h170v-579h581v579h170v-1296h-170v582h-581v-582h-170z" />
<glyph unicode="I" horiz-adv-x="727" d="M143 0v104h136v1090h-136v102h441v-102h-135v-1090h135v-104h-441z" />
<glyph unicode="J" horiz-adv-x="831" d="M90 27l8 125q39 -19 98 -32.5t109 -13.5q125 0 166 84q29 62 29 183v803h-344v120h514v-919q0 -186 -58 -275q-82 -120 -293 -120q-119 0 -229 45z" />
<glyph unicode="K" horiz-adv-x="1144" d="M164 0v1296h170v-581h205l315 581h168l-348 -639l280 -485q21 -36 39 -49.5t43 -13.5q42 0 72 20l-6 -109q-47 -30 -111 -30q-63 0 -105.5 30t-86.5 107l-264 457h-201v-584h-170z" />
<glyph unicode="L" horiz-adv-x="966" d="M164 0v1296h170v-1175h577l-16 -121h-731z" />
<glyph unicode="M" horiz-adv-x="1544" d="M164 0v1296h158l413 -972q39 -98 45 -146h2q7 56 43 144l400 974h155v-1296h-149v1008q-16 -80 -66 -201l-331 -807h-117l-348 827q-45 105 -58 181v-1008h-147z" />
<glyph unicode="N" horiz-adv-x="1280" d="M164 0v1296h121l612 -893q53 -75 72 -131v1024h147v-1296h-121l-614 899q-55 79 -70 131v-1030h-147z" />
<glyph unicode="O" horiz-adv-x="1220" d="M96 649q0 317 134 491.5t380 174.5q244 0 379 -174.5t135 -491.5t-135 -492t-379 -175q-245 0 -379.5 175t-134.5 492zM274 649q0 -540 336 -540t336 540q0 539 -336 539t-336 -539z" />
<glyph unicode="P" horiz-adv-x="1118" d="M61 1176v120h467q239 0 359 -73q162 -101 162 -330q0 -248 -170 -350q-123 -72 -334 -72h-201v-471h-170v1176h-113zM344 586h162q93 0 156.5 12t114.5 44t75.5 92.5t24.5 152.5q0 165 -105 235q-80 54 -242 54h-186v-590z" />
<glyph unicode="Q" horiz-adv-x="1220" d="M96 649q0 317 134 491.5t380 174.5q244 0 379 -174.5t135 -491.5q0 -302 -123.5 -476t-347.5 -189q-18 -37 -18 -90t31 -84q35 -35 102 -35q110 0 252 100l-10 -121q-120 -96 -283 -96q-123 0 -186 63q-56 53 -56 144q0 62 33 123q-203 32 -312.5 203.5t-109.5 457.5z M274 649q0 -540 336 -540t336 540q0 539 -336 539t-336 -539z" />
<glyph unicode="R" horiz-adv-x="1198" d="M61 1176v120h494q247 0 369 -94q125 -96 125 -282q0 -155 -73.5 -254t-215.5 -136l201 -362q19 -34 34.5 -46.5t38.5 -12.5q42 0 78 22l-6 -108q-56 -33 -115 -33q-69 0 -108.5 30.5t-79.5 102.5l-213 385h-244v-508h-170v1176h-115zM346 625h223q308 0 308 284 q0 130 -70 197q-75 70 -268 70h-193v-551z" />
<glyph unicode="S" horiz-adv-x="1036" d="M139 969q0 141 97 235q117 111 342 111q139 0 278 -47l-6 -129q-144 53 -281 53q-131 0 -202.5 -54.5t-71.5 -150.5q0 -53 22 -94.5t59 -68.5t85.5 -49t101.5 -42t106.5 -41t102 -51.5t85.5 -69.5t59 -98.5t22 -134.5q0 -94 -35.5 -164.5t-98.5 -111.5t-140 -60.5 t-168 -19.5q-191 0 -351 69l7 139q159 -86 342 -86q135 0 211.5 58t76.5 162q0 55 -22 97t-59 70t-85.5 51t-102 42.5t-106.5 40.5t-101.5 50.5t-85.5 67.5t-59 95.5t-22 130.5z" />
<glyph unicode="T" horiz-adv-x="1009" d="M41 1176v120h928v-120h-379v-1176h-170v1176h-379z" />
<glyph unicode="U" horiz-adv-x="1243" d="M162 455v841h170v-825q0 -190 55 -270q66 -97 234 -97q166 0 235 97q57 77 57 274v821h168v-825q0 -116 -18 -194t-62 -140q-109 -155 -385 -155q-242 0 -352 122q-55 59 -78.5 142t-23.5 209z" />
<glyph unicode="V" horiz-adv-x="1093" d="M49 1296h172l293 -972q31 -113 31 -148h2q0 59 28 148l308 972h164l-420 -1296h-176z" />
<glyph unicode="W" horiz-adv-x="1671" d="M49 1296h164l276 -968q25 -94 25 -142h2q4 78 21 133l233 785l-57 192h159l277 -962q27 -92 27 -148h2q3 66 26 148l264 962h154l-369 -1296h-161l-252 864l-258 -864h-158z" />
<glyph unicode="X" horiz-adv-x="1107" d="M61 0l385 672l-354 624h187l278 -501l268 501h172l-360 -643l266 -481q22 -37 38.5 -50t43.5 -13q37 0 66 22l-7 -108q-46 -33 -104 -33q-61 0 -102 29.5t-82 103.5l-228 409l-290 -532h-177z" />
<glyph unicode="Y" d="M43 1296h180l285 -577q41 -80 47 -131h2q5 39 45 125l281 583h159l-413 -843v-453h-170v457z" />
<glyph unicode="Z" horiz-adv-x="1021" d="M111 0v88l614 1088h-571v120h768v-88l-615 -1087h635l-18 -121h-813z" />
<glyph unicode="[" horiz-adv-x="548" d="M178 -379v1780h332v-117h-178v-1546h178v-117h-332z" />
<glyph unicode="\" horiz-adv-x="595" d="M12 1315h144l430 -1333h-146z" />
<glyph unicode="]" horiz-adv-x="548" d="M39 -262h178v1546h-178v117h332v-1780h-332v117z" />
<glyph unicode="^" horiz-adv-x="1044" d="M201 862l258 426q17 27 41 27h51q24 0 41 -29l256 -424h-133l-189 326l-192 -326h-133z" />
<glyph unicode="_" horiz-adv-x="1024" d="M16 -98h994v-101h-994v101z" />
<glyph unicode="`" horiz-adv-x="542" d="M86 1278q0 36 23 56t65 20q67 0 143.5 -56.5t143.5 -146.5l-23 -47q-128 113 -248 113q-32 0 -77 -15q-10 12 -18.5 36t-8.5 40z" />
<glyph unicode="a" horiz-adv-x="1038" d="M104 307q0 155 101 245.5t293 90.5q110 0 211 -27v54q0 105 -47 161q-58 68 -191 68q-145 0 -278 -65l-3 116q135 62 297 62q216 0 308 -105q71 -80 71 -235v-482q0 -46 11.5 -66t42.5 -20t61 19l-6 -103q-44 -28 -109 -28q-130 0 -145 114q-37 -59 -111 -91.5 t-159 -32.5q-157 0 -252 85.5t-95 239.5zM260 315q0 -106 59.5 -163.5t151.5 -57.5q123 0 184 74q54 69 54 190v150q-94 24 -195 24q-254 0 -254 -217z" />
<glyph unicode="b" horiz-adv-x="1075" d="M53 1284v117h273v-502q86 113 268 113q191 0 297 -138q102 -133 102 -362q0 -530 -487 -530q-181 0 -338 55v1247h-115zM326 119q83 -27 174 -27q95 0 161 29t103 85.5t53.5 129.5t16.5 172q0 143 -37 233q-60 150 -228 150q-140 0 -204 -103q-39 -62 -39 -174v-495z" />
<glyph unicode="c" horiz-adv-x="940" d="M82 498q0 238 115.5 376t316.5 138q173 0 272 -111q57 -63 78 -153l-143 -33q-47 182 -207 182q-130 0 -201 -104.5t-71 -286.5q0 -406 309 -406q148 0 274 88l-6 -122q-51 -37 -131 -60.5t-162 -23.5q-217 0 -330.5 134t-113.5 382z" />
<glyph unicode="d" horiz-adv-x="1095" d="M82 457q0 270 141 420q129 135 359 135q93 0 178 -29v301h-115v117h273v-1213q0 -48 11 -66t42 -18q28 0 61 19l-8 -103q-44 -28 -111 -28q-128 0 -145 112q-87 -122 -270 -122q-104 0 -184.5 36t-130.5 101t-75.5 150.5t-25.5 187.5zM242 465q0 -167 67.5 -267 t202.5 -100q75 0 130.5 34.5t82.5 92.5q35 74 35 189v456q-77 29 -166 29q-171 0 -261.5 -108.5t-90.5 -325.5z" />
<glyph unicode="e" horiz-adv-x="999" d="M82 492q0 247 116 383.5t314 136.5q180 0 286.5 -126t106.5 -341q0 -55 -22 -79t-76 -24h-565q9 -164 90 -253t225 -89q80 0 164 27t145 68l-6 -125q-55 -39 -145.5 -63.5t-177.5 -24.5q-222 0 -338.5 137t-116.5 373zM242 551h495q17 0 17 18q0 151 -63 240.5t-185 89.5 q-118 0 -186.5 -89t-77.5 -259z" />
<glyph unicode="f" horiz-adv-x="653" d="M45 877v116h148v137q0 154 65 222q70 73 215 73q99 0 172 -28v-113q-69 27 -147 27q-82 0 -115 -41q-19 -22 -26 -55.5t-7 -94.5v-127h248v-116h-248v-877h-157v877h-148z" />
<glyph unicode="g" horiz-adv-x="1077" d="M86 467q0 276 164 424q133 121 354 121q174 0 320 -68v-897q0 -138 -16 -214t-60 -134q-103 -133 -344 -133q-186 0 -326 72l4 124q145 -79 310 -79q150 0 219 84q32 37 43.5 94t11.5 162v92q-38 -53 -109 -85t-159 -32q-202 0 -307 124.5t-105 344.5zM246 483 q0 -170 65.5 -270t208.5 -100q114 0 180 69t66 201v485q-74 33 -162 33q-148 0 -239 -82q-119 -107 -119 -336z" />
<glyph unicode="h" horiz-adv-x="1114" d="M170 0v1401h158v-502q102 113 282 113q87 0 160 -27.5t117 -77.5q43 -49 59.5 -114t16.5 -156v-637h-158v618q0 83 -9.5 128t-41.5 79q-56 62 -172 62q-126 0 -193 -76q-34 -39 -47.5 -93.5t-13.5 -144.5v-573h-158z" />
<glyph unicode="i" horiz-adv-x="542" d="M72 877v116h272v-803q0 -50 11 -68t42 -18q29 0 62 19l-8 -103q-44 -28 -111 -28q-80 0 -119 45q-35 41 -35 129v711h-114zM154 1272q0 41 28.5 70.5t69.5 29.5t71.5 -29.5t30.5 -70.5t-30.5 -71t-71.5 -30t-69.5 29.5t-28.5 71.5z" />
<glyph unicode="j" horiz-adv-x="544" d="M-49 -395l4 116q57 -24 121 -24q99 0 129 74q20 46 20 198v908h-123v116h281v-1022q0 -100 -7 -155t-30 -103q-30 -64 -96 -98.5t-152 -34.5q-83 0 -147 25zM193 1272q0 41 29.5 70.5t70.5 29.5t70.5 -29.5t29.5 -70.5t-29.5 -71t-70.5 -30t-70.5 30t-29.5 71z" />
<glyph unicode="k" horiz-adv-x="1009" d="M53 1284v117h273v-785h151l258 377h164l-293 -428l225 -393q22 -38 42.5 -53t50.5 -15q32 0 59 17l-4 -103q-43 -26 -100 -26q-61 0 -103.5 27.5t-77.5 89.5l-221 387h-151v-496h-158v1284h-115z" />
<glyph unicode="l" horiz-adv-x="528" d="M55 1284v117h273v-1211q0 -50 11 -68t42 -18q28 0 61 19l-8 -103q-44 -28 -110 -28q-80 0 -119 45q-35 41 -35 129v1118h-115z" />
<glyph unicode="m" horiz-adv-x="1726" d="M59 877v116h220l26 -119q101 138 301 138q96 0 181 -39t124 -117q41 72 126 114t192 42q175 0 270 -105q76 -85 76 -270v-637h-158v618q0 81 -10 127.5t-41 79.5q-56 62 -166 62q-121 0 -186 -74q-34 -39 -48 -95t-14 -145v-573h-157v618q0 82 -10 128t-40 79 q-56 62 -165 62q-122 0 -187 -74q-34 -38 -47.5 -94t-13.5 -146v-573h-158v877h-115z" />
<glyph unicode="n" horiz-adv-x="1118" d="M59 877v116h220l26 -121q98 140 309 140q87 0 160 -27.5t117 -77.5q43 -49 59.5 -114t16.5 -156v-637h-158v618q0 83 -9.5 128t-41.5 79q-56 62 -172 62q-126 0 -193 -76q-34 -39 -47.5 -93.5t-13.5 -144.5v-573h-158v877h-115z" />
<glyph unicode="o" horiz-adv-x="1036" d="M82 496q0 245 116.5 380.5t319.5 135.5t319.5 -135.5t116.5 -380.5t-116.5 -379.5t-319.5 -134.5t-319.5 134.5t-116.5 379.5zM242 496q0 -202 71.5 -301t204.5 -99t205 99t72 301t-72 301.5t-205 99.5q-132 0 -204 -99.5t-72 -301.5z" />
<glyph unicode="p" horiz-adv-x="1081" d="M59 877v116h226l26 -116q89 135 289 135q103 0 180.5 -37.5t124.5 -106t70.5 -158t23.5 -198.5q0 -121 -27 -216t-84 -166.5t-150.5 -109.5t-219.5 -38q-76 0 -186 20v-410h-158v1285h-115zM332 119q89 -27 178 -27q181 0 255.5 105.5t74.5 310.5q0 385 -262 385 q-127 0 -191 -80q-55 -68 -55 -217v-477z" />
<glyph unicode="q" horiz-adv-x="1073" d="M82 463q0 295 174 440q131 109 336 109q179 0 332 -70v-1053q0 -183 49 -284l-150 -31q-57 88 -57 248v287q-38 -57 -110.5 -92t-161.5 -35q-199 0 -305.5 132t-106.5 349zM242 483q0 -80 15 -147t46.5 -121.5t87 -85.5t129.5 -31q116 0 182 76q64 76 64 205v487 q-68 33 -172 33q-148 0 -236 -82q-116 -107 -116 -334z" />
<glyph unicode="r" horiz-adv-x="686" d="M59 877v116h224l28 -141q38 76 105.5 118t152.5 42q32 0 56 -4v-136q-25 5 -54 5q-116 0 -176 -78q-63 -79 -63 -260v-539h-158v877h-115z" />
<glyph unicode="s" horiz-adv-x="870" d="M111 45l12 129q134 -78 295 -78q105 0 163 43t58 113q0 34 -11.5 61t-29 45.5t-52 37t-66 30.5t-85.5 31q-52 18 -86 32.5t-73.5 38.5t-62.5 51t-38.5 67.5t-15.5 90.5q0 130 101.5 202.5t258.5 72.5q128 0 240 -39v-125q-108 51 -242 51q-100 0 -155.5 -40t-55.5 -107 q0 -65 51.5 -103t165.5 -78q60 -21 96.5 -36.5t80 -42t67.5 -55t40.5 -72t16.5 -97.5q0 -128 -95.5 -207t-268.5 -79q-166 0 -309 63z" />
<glyph unicode="t" horiz-adv-x="702" d="M51 877v116h148v260l157 54v-314h238v-116h-238v-592q0 -95 29 -140t104 -45q84 0 150 41l-2 -116q-72 -43 -188 -43q-134 0 -199 81q-51 61 -51 218v596h-148z" />
<glyph unicode="u" horiz-adv-x="1122" d="M147 356v637h158v-618q0 -84 9.5 -128t41.5 -79q56 -62 172 -62q126 0 193 76q34 39 47.5 93.5t13.5 144.5v573h158v-800q0 -50 12 -69.5t43 -19.5q27 0 60 19l-6 -103q-44 -28 -111 -28q-120 0 -143 114q-102 -124 -295 -124q-184 0 -277 104q-43 49 -59.5 114 t-16.5 156z" />
<glyph unicode="v" horiz-adv-x="901" d="M23 993h163l213 -651q37 -110 50 -180q8 58 51 184l233 647h148l-373 -993h-137z" />
<glyph unicode="w" horiz-adv-x="1345" d="M23 993h159l205 -633q32 -97 47 -178q14 84 49 185l140 417l-68 209h152l198 -633q29 -93 43 -180q18 109 43 187l191 626h141l-315 -993h-127l-197 598l-199 -598h-125z" />
<glyph unicode="x" horiz-adv-x="901" d="M18 0l347 506l-302 487h168l226 -370l243 370h150l-322 -483l215 -354q32 -52 76 -52q34 0 64 19l-4 -107q-43 -24 -99 -24q-57 0 -94 25t-74 87l-176 289l-264 -393h-154z" />
<glyph unicode="y" horiz-adv-x="1093" d="M147 356v637h158v-618q0 -84 9.5 -128t41.5 -79q56 -62 172 -62q126 0 193 76q34 39 47.5 93.5t13.5 144.5v573h158v-946q0 -138 -16 -214t-60 -134q-103 -133 -344 -133q-185 0 -325 72l4 124q145 -79 309 -79q150 0 219 84q32 37 43.5 94t11.5 162v73 q-96 -114 -282 -114q-184 0 -277 104q-43 49 -59.5 114t-16.5 156z" />
<glyph unicode="z" horiz-adv-x="860" d="M100 0v102l500 775h-489v116h665v-100l-500 -774h519l-11 -119h-684z" />
<glyph unicode="{" horiz-adv-x="581" d="M76 455v75l18 2q72 11 102.5 49t30.5 121q0 70 -5 238.5t-5 228.5q0 121 60 176.5t182 55.5h61v-82h-41q-64 0 -90.5 -29.5t-26.5 -97.5q0 -67 20.5 -231.5t20.5 -239.5q0 -93 -37.5 -149t-123.5 -80q86 -24 123.5 -79.5t37.5 -148.5q0 -75 -20.5 -239.5t-20.5 -231.5 q0 -68 26.5 -97.5t90.5 -29.5h41v-84h-61q-122 0 -182 56.5t-60 177.5q0 60 5 228.5t5 238.5q0 82 -30 119.5t-101 48.5z" />
<glyph unicode="|" horiz-adv-x="452" d="M164 -512v2048h125v-2048h-125z" />
<glyph unicode="}" horiz-adv-x="581" d="M61 -334h41q64 0 90.5 29.5t26.5 97.5q0 67 -20.5 231.5t-20.5 239.5q0 93 38 148.5t124 79.5q-86 24 -124 80t-38 149q0 75 20.5 239.5t20.5 231.5q0 68 -26.5 97.5t-90.5 29.5h-41v82h62q122 0 182 -55.5t60 -176.5q0 -60 -5.5 -228.5t-5.5 -238.5q0 -83 30.5 -121 t102.5 -49l19 -2v-75l-21 -4q-71 -11 -101 -48.5t-30 -119.5q0 -70 5.5 -238.5t5.5 -228.5q0 -121 -60 -177.5t-182 -56.5h-62v84z" />
<glyph unicode="~" horiz-adv-x="1044" d="M90 418q53 126 117.5 185t154.5 59q52 0 102 -24t82.5 -52t74.5 -52t81 -24q50 0 91.5 34.5t97.5 112.5l63 -51q-54 -126 -118 -185t-154 -59q-51 0 -99 24t-79 52t-75 52t-87 24q-50 0 -91.5 -34.5t-94.5 -110.5z" />
<glyph unicode="&#xa1;" horiz-adv-x="575" d="M188 911q0 41 30 71t71 30t69.5 -29.5t28.5 -71.5q0 -41 -28.5 -69.5t-69.5 -28.5q-42 0 -71.5 28.5t-29.5 69.5zM193 -197l59 818h74l59 -818v-20q0 -50 -22.5 -73t-73.5 -23t-73.5 23t-22.5 73v20z" />
<glyph unicode="&#xa2;" d="M150 498q0 218 98 353t270 157v206h107v-204q146 -12 233 -113q53 -62 74 -149l-144 -33q-41 156 -163 178v-793q145 3 268 88l-6 -122q-45 -33 -115.5 -55.5t-146.5 -26.5v-205h-107v209q-181 23 -274.5 154t-93.5 356zM309 506q0 -334 209 -391v776 q-100 -25 -154.5 -126t-54.5 -259z" />
<glyph unicode="&#xa3;" d="M94 598v96h158q-70 148 -70 269q0 162 110 257t281 95q168 0 268 -83.5t128 -238.5l-148 -24q-47 217 -246 217q-106 0 -166.5 -60t-60.5 -155q0 -71 20 -134.5t60 -142.5h346v-96h-301q49 -103 49 -207q0 -91 -35.5 -154.5t-107.5 -115.5h614l-14 -121h-793v98 q80 47 126 118t46 157q0 92 -63 225h-201z" />
<glyph unicode="&#xa4;" d="M135 229l141 195q-51 91 -51 225t51 225l-141 195h131l80 -111q77 62 193 62q115 0 192 -62l80 111h131l-141 -195q51 -91 51 -225t-51 -225l141 -195h-131l-80 111q-76 -61 -192 -61q-117 0 -193 61l-80 -111h-131zM348 649q0 -268 191 -268q190 0 190 268 q0 269 -190 269q-191 0 -191 -269z" />
<glyph unicode="&#xa5;" d="M39 1296h184l281 -577q43 -88 49 -137h2q6 54 45 131l281 581h159l-383 -778h256v-104h-286v-95h286v-104h-286v-213h-168v213h-287v104h287v95h-287v104h256z" />
<glyph unicode="&#xa6;" horiz-adv-x="452" d="M164 266h125v-778h-125v778zM164 758v778h125v-778h-125z" />
<glyph unicode="&#xa7;" d="M209 387q0 120 65.5 205.5t182.5 122.5q-61 30 -101 56t-76 62t-53.5 82t-17.5 103q0 136 97.5 216.5t258.5 80.5q131 0 246 -39l-12 -117q-110 45 -232 45q-98 0 -154.5 -49t-56.5 -125q0 -47 28.5 -85t74 -65.5t100.5 -55t110 -59.5t100.5 -71t74 -98.5t28.5 -132.5 q0 -120 -66 -206.5t-183 -123.5q49 -25 79.5 -43t66.5 -45.5t56 -55.5t33.5 -68t13.5 -87q0 -136 -97 -217.5t-259 -81.5q-131 0 -246 39l13 117q101 -43 231 -43q99 0 155 47.5t56 124.5q0 47 -28.5 85t-74 65.5t-100.5 55t-110 59.5t-100.5 71t-74 98.5t-28.5 132.5z M354 403q0 -67 37.5 -115t110.5 -91q114 28 169.5 92.5t55.5 156.5q0 67 -37.5 117t-109.5 92q-114 -28 -170 -94t-56 -158z" />
<glyph unicode="&#xa8;" horiz-adv-x="542" d="M18 1253q0 43 30 73t73 30q41 0 69.5 -30t28.5 -73t-27.5 -70.5t-70.5 -27.5t-73 28.5t-30 69.5zM326 1253q0 43 28.5 73t69.5 30q43 0 72.5 -30t29.5 -73q0 -41 -29.5 -69.5t-72.5 -28.5t-70.5 27.5t-27.5 70.5z" />
<glyph unicode="&#xa9;" horiz-adv-x="1550" d="M111 649q0 196 81.5 347t233 235t350.5 84t350 -84t232.5 -235t81.5 -347t-81.5 -347.5t-232.5 -235.5t-350 -84t-350.5 84t-233 235.5t-81.5 347.5zM223 649q0 -267 151.5 -421t401.5 -154t401.5 154t151.5 421t-151.5 421.5t-401.5 154.5t-401.5 -154.5t-151.5 -421.5z M487 653q0 168 77 266.5t224 98.5q183 0 230 -178l-109 -27q-18 56 -47 83.5t-78 27.5q-83 0 -125.5 -69t-42.5 -196q0 -60 8 -106t28 -87.5t59.5 -64t97.5 -22.5q103 0 195 63l-5 -100q-37 -24 -92.5 -40.5t-109.5 -16.5q-85 0 -147.5 29.5t-96.5 82t-50 116t-16 140.5z " />
<glyph unicode="&#xaa;" horiz-adv-x="727" d="M115 893q0 100 65.5 150.5t173.5 50.5q68 0 125 -17v31q0 64 -28 96q-36 39 -115 39q-83 0 -170 -41l-2 76q78 37 182 37q130 0 186 -62q46 -52 46 -143v-287q0 -28 5.5 -38.5t22.5 -10.5t41 12l-4 -65q-26 -16 -68 -16q-78 0 -90 61q-23 -33 -66.5 -51.5t-92.5 -18.5 q-95 0 -153 52t-58 145zM213 899q0 -60 34 -95.5t91 -35.5q73 0 108 41q33 39 33 115v88q-46 12 -114 12q-152 0 -152 -125z" />
<glyph unicode="&#xab;" horiz-adv-x="966" d="M172 496q0 18 21 39l282 309l37 -101l-190 -247l190 -248l-37 -98l-282 307q-21 25 -21 39zM463 496q0 19 20 39l283 309l35 -101l-189 -247l189 -248l-35 -98l-283 307q-20 24 -20 39z" />
<glyph unicode="&#xac;" horiz-adv-x="1044" d="M209 766v117h629v-447h-119v330h-510z" />
<glyph unicode="&#xad;" horiz-adv-x="692" d="M117 426v129h458v-129h-458z" />
<glyph unicode="&#xae;" horiz-adv-x="1550" d="M111 649q0 196 81.5 347t233 235t350.5 84t350 -84t232.5 -235t81.5 -347t-81.5 -347.5t-232.5 -235.5t-350 -84t-350.5 84t-233 235.5t-81.5 347.5zM223 649q0 -267 151.5 -421t401.5 -154t401.5 154t151.5 421t-151.5 421.5t-401.5 154.5t-401.5 -154.5t-151.5 -421.5z M483 913v93h287q127 0 200.5 -54t73.5 -161q0 -169 -151 -216l94 -165q18 -33 41 -33q27 0 53 16l-6 -84q-33 -22 -69 -22q-41 0 -67.5 15.5t-49.5 55.5l-115 201h-110v-268h-121v622h-60zM664 649h106q81 0 115.5 35.5t34.5 101.5q0 70 -39.5 98.5t-126.5 28.5h-90v-264z " />
<glyph unicode="&#xaf;" horiz-adv-x="542" d="M53 1233v110h441v-110h-441z" />
<glyph unicode="&#xb0;" horiz-adv-x="927" d="M150 987q0 148 87.5 238t227.5 90t226.5 -89.5t86.5 -238.5t-86.5 -238.5t-226.5 -89.5t-227.5 90t-87.5 238zM268 987q0 -103 50 -168t147 -65t147 65t50 168t-50 169.5t-147 66.5t-147 -66.5t-50 -169.5z" />
<glyph unicode="&#xb1;" horiz-adv-x="1044" d="M209 0v119h629v-119h-629zM209 598v117h256v256h117v-256h256v-117h-256v-256h-117v256h-256z" />
<glyph unicode="&#xb2;" horiz-adv-x="751" d="M139 1126q26 93 92 141t162 48q112 0 178 -59.5t66 -165.5q0 -50 -18.5 -92.5t-49 -73.5t-67.5 -59t-75 -56t-70 -57t-55 -68.5t-28 -85.5h367l-14 -98h-475v41q0 71 20 129t52 97t70.5 72t77 60.5t70.5 54.5t52 61.5t20 74.5q0 60 -33.5 94.5t-95.5 34.5 q-54 0 -87 -29.5t-54 -91.5z" />
<glyph unicode="&#xb3;" horiz-adv-x="751" d="M129 1139q58 176 250 176q112 0 173.5 -57.5t61.5 -149.5q0 -115 -92 -168q63 -23 96 -74t33 -121q0 -117 -77 -182t-212 -65q-125 0 -210 51l8 108q101 -63 200 -63q81 0 123.5 40t42.5 111q0 65 -49.5 99.5t-138.5 34.5v90q74 3 114 38.5t40 96.5q0 53 -30 85t-87 32 q-53 0 -86.5 -26.5t-55.5 -84.5z" />
<glyph unicode="&#xb4;" horiz-adv-x="542" d="M82 1151q67 90 143.5 146.5t143.5 56.5q42 0 65 -20t23 -56q0 -16 -8.5 -40t-18.5 -36q-45 15 -78 15q-120 0 -248 -113z" />
<glyph unicode="&#xb6;" horiz-adv-x="921" d="M76 1014q0 131 92 213q78 69 221 69h465v-98h-129v-1665h-115v1665h-143v-1665h-113v1200q-117 2 -197.5 83t-80.5 198z" />
<glyph unicode="&#xb7;" horiz-adv-x="475" d="M137 602q0 41 30 70.5t71 29.5t70.5 -29.5t29.5 -70.5t-29.5 -70.5t-70.5 -29.5t-71 29.5t-30 70.5z" />
<glyph unicode="&#xb8;" horiz-adv-x="542" d="M129 -94q0 36 43 98l49 70l60 -25l-37 -51q-23 -30 -23 -49q0 -18 30.5 -31.5t67 -22.5t67 -35t30.5 -67q0 -65 -59 -103t-177 -38l-16 59q155 11 155 64q0 23 -29.5 38.5t-65.5 23t-65.5 25t-29.5 44.5z" />
<glyph unicode="&#xb9;" horiz-adv-x="751" d="M178 1198l209 117h78v-711h115v-92h-365v92h129v576l-115 -66z" />
<glyph unicode="&#xba;" horiz-adv-x="727" d="M100 1006q0 146 71 227.5t194 81.5t193.5 -81.5t70.5 -227.5q0 -147 -70.5 -228.5t-193.5 -81.5t-194 82t-71 228zM201 1006q0 -119 43 -177.5t121 -58.5t120.5 58t42.5 178t-43 178.5t-120 58.5q-78 0 -121 -59t-43 -178z" />
<glyph unicode="&#xbb;" horiz-adv-x="966" d="M166 248l190 248l-190 247l37 101l280 -309q23 -23 23 -39q0 -11 -23 -39l-280 -307zM457 248l188 248l-188 247l35 101l282 -309q21 -21 21 -39q0 -14 -21 -39l-282 -307z" />
<glyph unicode="&#xbc;" horiz-adv-x="1648" d="M172 1198l209 117h78v-711h114v-92h-366v92h129v576l-115 -66zM530 -18l431 1333h118l-430 -1333h-119zM893 225l315 586l101 -49l-271 -498h232v139h112v-139h99v-96h-99v-168h-112v168h-338z" />
<glyph unicode="&#xbd;" horiz-adv-x="1648" d="M168 1198l209 117h78v-711h114v-92h-366v92h129v576l-115 -66zM526 -18l430 1333h119l-430 -1333h-119zM969 627q26 93 91.5 140.5t162.5 47.5q112 0 177.5 -59.5t65.5 -165.5q0 -50 -18.5 -92.5t-49 -73.5t-67 -59t-74.5 -56t-70 -57t-55 -68.5t-28 -85.5h366l-14 -98 h-475v41q0 71 20 129t52 97t70.5 72t77 60.5t70.5 54.5t52 61.5t20 74.5q0 60 -33.5 94.5t-95.5 34.5q-54 0 -87 -29.5t-54 -91.5z" />
<glyph unicode="&#xbe;" horiz-adv-x="1648" d="M156 1139q58 176 250 176q112 0 173.5 -57.5t61.5 -149.5q0 -115 -92 -168q63 -23 96 -74t33 -121q0 -117 -77 -182t-212 -65q-126 0 -211 51l8 108q101 -63 201 -63q81 0 123.5 40t42.5 111q0 65 -49.5 99.5t-138.5 34.5v90q73 3 113 38t40 97q0 53 -30 85t-87 32 q-53 0 -86 -26.5t-55 -84.5zM602 -18l430 1333h119l-430 -1333h-119zM965 225l315 586l100 -49l-270 -498h231v139h113v-139h98v-96h-98v-168h-113v168h-337z" />
<glyph unicode="&#xbf;" horiz-adv-x="972" d="M131 47q0 311 344 361l21 215h84l18 -297l-23 -2q-145 -12 -216.5 -78t-71.5 -195q0 -110 62.5 -175.5t168.5 -65.5q188 0 238 188l131 -29q-27 -134 -129 -208t-244 -74q-182 0 -282.5 96.5t-100.5 263.5zM434 911q0 41 30 71t71 30t70.5 -30t29.5 -71t-29.5 -69.5 t-70.5 -28.5q-42 0 -71.5 28.5t-29.5 69.5z" />
<glyph unicode="&#xc0;" horiz-adv-x="1204" d="M82 0l395 1176h-119v120h326l467 -1296h-172l-105 299h-530l-96 -299h-166zM383 416h453l-207 592q-24 66 -29 118h-2q-2 -48 -23 -118zM385 1561q0 36 23 55.5t65 19.5q67 0 143.5 -56t143.5 -146l-23 -48q-128 113 -248 113q-35 0 -77 -14q-10 12 -18.5 36t-8.5 40z " />
<glyph unicode="&#xc1;" horiz-adv-x="1204" d="M82 0l395 1176h-119v120h326l467 -1296h-172l-105 299h-530l-96 -299h-166zM369 1434q67 90 143 146t143 56q42 0 65 -19.5t23 -55.5q0 -16 -8 -40.5t-18 -35.5q-42 14 -78 14q-120 0 -248 -113zM383 416h453l-207 592q-24 66 -29 118h-2q-2 -48 -23 -118z" />
<glyph unicode="&#xc2;" horiz-adv-x="1204" d="M82 0l395 1176h-119v120h326l467 -1296h-172l-105 299h-530l-96 -299h-166zM334 1419l155 201q18 23 29.5 30t32.5 7h47q20 0 31.5 -7.5t29.5 -29.5l156 -201h-121l-119 154l-120 -154h-121zM383 416h453l-207 592q-24 66 -29 118h-2q-2 -48 -23 -118z" />
<glyph unicode="&#xc3;" horiz-adv-x="1204" d="M82 0l395 1176h-119v120h326l467 -1296h-172l-105 299h-530l-96 -299h-166zM317 1444q11 182 144 182q46 0 107 -38t94 -38q47 0 69 76h62q-11 -182 -144 -182q-49 0 -109.5 38t-90.5 38q-48 0 -70 -76h-62zM383 416h453l-207 592q-24 66 -29 118h-2q-2 -48 -23 -118z " />
<glyph unicode="&#xc4;" horiz-adv-x="1204" d="M82 0l395 1176h-119v120h326l467 -1296h-172l-105 299h-530l-96 -299h-166zM332 1534q0 43 29.5 72.5t72.5 29.5q41 0 69.5 -29.5t28.5 -72.5t-27.5 -70.5t-70.5 -27.5t-72.5 28.5t-29.5 69.5zM383 416h453l-207 592q-24 66 -29 118h-2q-2 -48 -23 -118zM639 1534 q0 43 28.5 72.5t69.5 29.5q43 0 73 -29.5t30 -72.5q0 -41 -30 -69.5t-73 -28.5t-70.5 27.5t-27.5 70.5z" />
<glyph unicode="&#xc5;" horiz-adv-x="1204" d="M82 0l395 1176h-119v120h326l467 -1296h-172l-105 299h-530l-96 -299h-166zM383 416h453l-207 592q-24 66 -29 118h-2q-2 -48 -23 -118zM403 1565q0 72 49 118t119 46t119 -46t49 -118t-49 -118t-119 -46t-119 46t-49 118zM485 1565q0 -39 23 -65.5t63 -26.5t63 26.5 t23 65.5t-23 65.5t-63 26.5t-63 -26.5t-23 -65.5z" />
<glyph unicode="&#xc6;" horiz-adv-x="1736" d="M20 0l689 1176h-140v120h1030v-120h-567v-459h459v-117h-459v-479h613l-17 -121h-766v301h-491l-172 -301h-179zM438 418h424v760q-35 -88 -94 -189z" />
<glyph unicode="&#xc7;" horiz-adv-x="1114" d="M96 659q0 309 137 482.5t388 173.5q153 0 256.5 -75.5t138.5 -219.5l-156 -37q-30 101 -87 154t-157 53q-167 0 -254.5 -135.5t-87.5 -388.5q0 -99 10.5 -179t37.5 -151.5t70 -119t110 -75.5t155 -28q86 0 177.5 26.5t154.5 67.5l-6 -135q-67 -40 -163 -65t-189 -25h-29 q-10 -20 -10 -33q0 -18 30.5 -31.5t66.5 -22.5t66.5 -35t30.5 -67q0 -66 -58.5 -103.5t-176.5 -37.5l-16 59q155 11 155 64q0 23 -29.5 38.5t-65.5 23t-65.5 25t-29.5 44.5q0 33 32 84q-218 30 -327 200.5t-109 468.5z" />
<glyph unicode="&#xc8;" horiz-adv-x="1038" d="M164 0v1296h737v-120h-567v-459h459v-117h-459v-479h612l-16 -121h-766zM360 1561q0 35 23 55t66 20q67 0 143 -56t143 -146l-22 -48q-128 113 -248 113q-36 0 -78 -14q-10 12 -18.5 36t-8.5 40z" />
<glyph unicode="&#xc9;" horiz-adv-x="1038" d="M164 0v1296h737v-120h-567v-459h459v-117h-459v-479h612l-16 -121h-766zM360 1434q67 90 143.5 146t143.5 56q42 0 65 -19.5t23 -55.5q0 -16 -8 -40.5t-18 -35.5q-42 14 -78 14q-120 0 -248 -113z" />
<glyph unicode="&#xca;" horiz-adv-x="1038" d="M164 0v1296h737v-120h-567v-459h459v-117h-459v-479h612l-16 -121h-766zM301 1419l156 201q18 23 29 30t32 7h47q20 0 32 -7.5t30 -29.5l155 -201h-120l-119 154l-121 -154h-121z" />
<glyph unicode="&#xcb;" horiz-adv-x="1038" d="M164 0v1296h737v-120h-567v-459h459v-117h-459v-479h612l-16 -121h-766zM287 1534q0 43 29.5 72.5t72.5 29.5q41 0 69.5 -29.5t28.5 -72.5t-27.5 -70.5t-70.5 -27.5t-72.5 28.5t-29.5 69.5zM594 1534q0 43 28.5 72.5t69.5 29.5q43 0 73 -29.5t30 -72.5q0 -41 -30 -69.5 t-73 -28.5t-70.5 27.5t-27.5 70.5z" />
<glyph unicode="&#xcc;" horiz-adv-x="727" d="M143 0v104h136v1090h-136v102h441v-102h-135v-1090h135v-104h-441zM178 1561q0 36 23 55.5t65 19.5q67 0 143.5 -56t143.5 -146l-23 -48q-128 113 -247 113q-36 0 -78 -14q-10 12 -18.5 36t-8.5 40z" />
<glyph unicode="&#xcd;" horiz-adv-x="727" d="M143 0v104h136v1090h-136v102h441v-102h-135v-1090h135v-104h-441zM180 1434q67 90 143.5 146t143.5 56q42 0 65 -19.5t23 -55.5q0 -16 -8.5 -40t-18.5 -36q-42 14 -77 14q-120 0 -248 -113z" />
<glyph unicode="&#xce;" horiz-adv-x="727" d="M123 1419l156 201q18 23 29 30t32 7h47q20 0 32 -7.5t30 -29.5l155 -201h-121l-118 154l-121 -154h-121zM143 0v104h136v1090h-136v102h441v-102h-135v-1090h135v-104h-441z" />
<glyph unicode="&#xcf;" horiz-adv-x="727" d="M111 1534q0 43 29.5 72.5t72.5 29.5q41 0 69.5 -29.5t28.5 -72.5t-27.5 -70.5t-70.5 -27.5t-72.5 28.5t-29.5 69.5zM143 0v104h136v1090h-136v102h441v-102h-135v-1090h135v-104h-441zM418 1534q0 43 28.5 72.5t69.5 29.5q43 0 72.5 -29.5t29.5 -72.5q0 -41 -29.5 -69.5 t-72.5 -28.5t-70.5 27.5t-27.5 70.5z" />
<glyph unicode="&#xd0;" horiz-adv-x="1251" d="M2 590v117h172v469h-113v120h437q220 0 364 -65q149 -67 221 -204t72 -370q0 -409 -217 -557q-145 -100 -401 -100h-363v590h-172zM344 121h168q120 0 203.5 26t142.5 86q119 122 119 431q0 191 -49.5 301.5t-163.5 162.5q-102 48 -281 48h-139v-469h219v-117h-219v-469z " />
<glyph unicode="&#xd1;" horiz-adv-x="1280" d="M164 0v1296h121l612 -893q53 -75 72 -131v1024h147v-1296h-121l-614 899q-55 79 -70 131v-1030h-147zM410 1444q10 182 143 182q46 0 107 -38t94 -38q47 0 69 76h62q-11 -182 -144 -182q-49 0 -109.5 38t-90.5 38q-48 0 -70 -76h-61z" />
<glyph unicode="&#xd2;" horiz-adv-x="1220" d="M96 649q0 317 134 491.5t380 174.5q244 0 379 -174.5t135 -491.5t-135 -492t-379 -175q-245 0 -379.5 175t-134.5 492zM274 649q0 -540 336 -540t336 540q0 539 -336 539t-336 -539zM424 1561q0 36 23 55.5t65 19.5q67 0 143.5 -56t143.5 -146l-23 -48q-128 113 -248 113 q-35 0 -77 -14q-10 12 -18.5 36t-8.5 40z" />
<glyph unicode="&#xd3;" horiz-adv-x="1220" d="M96 649q0 317 134 491.5t380 174.5q244 0 379 -174.5t135 -491.5t-135 -492t-379 -175q-245 0 -379.5 175t-134.5 492zM274 649q0 -540 336 -540t336 540q0 539 -336 539t-336 -539zM422 1434q67 90 143.5 146t143.5 56q42 0 65 -19.5t23 -55.5q0 -16 -8.5 -40t-18.5 -36 q-42 14 -78 14q-120 0 -248 -113z" />
<glyph unicode="&#xd4;" horiz-adv-x="1220" d="M96 649q0 317 134 491.5t380 174.5q244 0 379 -174.5t135 -491.5t-135 -492t-379 -175q-245 0 -379.5 175t-134.5 492zM274 649q0 -540 336 -540t336 540q0 539 -336 539t-336 -539zM369 1419l155 201q18 23 29.5 30t32.5 7h47q20 0 31.5 -7.5t29.5 -29.5l156 -201h-121 l-119 154l-121 -154h-120z" />
<glyph unicode="&#xd5;" horiz-adv-x="1220" d="M96 649q0 317 134 491.5t380 174.5q244 0 379 -174.5t135 -491.5t-135 -492t-379 -175q-245 0 -379.5 175t-134.5 492zM274 649q0 -540 336 -540t336 540q0 539 -336 539t-336 -539zM373 1444q11 182 143 182q46 0 107 -38t94 -38q47 0 69 76h62q-10 -182 -143 -182 q-49 0 -110 38t-91 38q-48 0 -70 -76h-61z" />
<glyph unicode="&#xd6;" horiz-adv-x="1220" d="M96 649q0 317 134 491.5t380 174.5q244 0 379 -174.5t135 -491.5t-135 -492t-379 -175q-245 0 -379.5 175t-134.5 492zM274 649q0 -540 336 -540t336 540q0 539 -336 539t-336 -539zM356 1534q0 43 30 72.5t73 29.5q41 0 69.5 -29.5t28.5 -72.5t-27.5 -70.5t-70.5 -27.5 t-73 28.5t-30 69.5zM664 1534q0 43 28.5 72.5t69.5 29.5q43 0 72.5 -29.5t29.5 -72.5q0 -41 -29.5 -69.5t-72.5 -28.5t-70.5 27.5t-27.5 70.5z" />
<glyph unicode="&#xd7;" horiz-adv-x="1044" d="M260 475l180 180l-180 183l82 82l180 -181l183 181l81 -82l-180 -183l180 -180l-81 -82l-183 180l-180 -180z" />
<glyph unicode="&#xd8;" horiz-adv-x="1220" d="M96 649q0 317 134 491.5t380 174.5q130 0 228 -49l80 172h124l-108 -236q190 -169 190 -553q0 -317 -134.5 -492t-379.5 -175q-127 0 -223 47l-78 -170h-125l109 233q-197 172 -197 557zM274 649q0 -276 86 -409l420 901q-71 47 -170 47q-336 0 -336 -539zM446 152 q70 -43 164 -43q336 0 336 540q0 268 -82 404z" />
<glyph unicode="&#xd9;" horiz-adv-x="1243" d="M162 455v841h170v-825q0 -190 55 -270q66 -97 234 -97q166 0 235 97q57 77 57 274v821h168v-825q0 -116 -18 -194t-62 -140q-109 -155 -385 -155q-242 0 -352 122q-55 59 -78.5 142t-23.5 209zM436 1561q0 36 23 55.5t65 19.5q67 0 143.5 -56t143.5 -146l-23 -48 q-128 113 -247 113q-36 0 -78 -14q-10 12 -18.5 36t-8.5 40z" />
<glyph unicode="&#xda;" horiz-adv-x="1243" d="M162 455v841h170v-825q0 -190 55 -270q66 -97 234 -97q166 0 235 97q57 77 57 274v821h168v-825q0 -116 -18 -194t-62 -140q-109 -155 -385 -155q-242 0 -352 122q-55 59 -78.5 142t-23.5 209zM438 1434q67 90 143.5 146t143.5 56q42 0 65 -19.5t23 -55.5q0 -16 -8.5 -40 t-18.5 -36q-42 14 -77 14q-120 0 -248 -113z" />
<glyph unicode="&#xdb;" horiz-adv-x="1243" d="M162 455v841h170v-825q0 -190 55 -270q66 -97 234 -97q166 0 235 97q57 77 57 274v821h168v-825q0 -116 -18 -194t-62 -140q-109 -155 -385 -155q-242 0 -352 122q-55 59 -78.5 142t-23.5 209zM385 1419l156 201q18 23 29 30t32 7h47q20 0 32 -7.5t30 -29.5l155 -201 h-121l-118 154l-121 -154h-121z" />
<glyph unicode="&#xdc;" horiz-adv-x="1243" d="M162 455v841h170v-825q0 -190 55 -270q66 -97 234 -97q166 0 235 97q57 77 57 274v821h168v-825q0 -116 -18 -194t-62 -140q-109 -155 -385 -155q-242 0 -352 122q-55 59 -78.5 142t-23.5 209zM367 1534q0 43 29.5 72.5t72.5 29.5q41 0 69.5 -29.5t28.5 -72.5 t-27.5 -70.5t-70.5 -27.5t-72.5 28.5t-29.5 69.5zM674 1534q0 43 28.5 72.5t69.5 29.5q43 0 72.5 -29.5t29.5 -72.5q0 -41 -29.5 -69.5t-72.5 -28.5t-70.5 27.5t-27.5 70.5z" />
<glyph unicode="&#xdd;" d="M43 1296h180l285 -577q41 -80 47 -131h2q5 39 45 125l281 583h159l-413 -843v-453h-170v457zM362 1434q67 90 143.5 146t143.5 56q42 0 65 -19.5t23 -55.5q0 -16 -8 -40.5t-18 -35.5q-42 14 -78 14q-120 0 -248 -113z" />
<glyph unicode="&#xde;" horiz-adv-x="1105" d="M164 0v1296h172v-225h180q236 0 358 -74q162 -101 162 -329q0 -249 -170 -351q-121 -71 -334 -71h-198v-246h-170zM334 360h160q93 0 156.5 12.5t114 44.5t75 92.5t24.5 152.5q0 166 -104 235q-79 53 -240 53h-186v-590z" />
<glyph unicode="&#xdf;" horiz-adv-x="1187" d="M45 877v116h148v8q0 205 107 314.5t312 109.5q179 0 281 -89t102 -259q0 -40 -7 -102t-15 -92q-81 18 -170 18q-104 0 -157.5 -38.5t-53.5 -110.5q0 -45 28 -78.5t73 -54.5t99.5 -40.5t109 -43.5t99.5 -56t73 -86t28 -125q0 -130 -95 -208t-266 -78q-164 0 -299 61v131 q141 -78 293 -78q100 0 158.5 41t58.5 115q0 54 -28 93t-73 61.5t-99 41.5t-108 40.5t-99 50t-73 79t-28 119.5q0 124 95 196.5t235 72.5q47 0 72 -5q6 42 6 74q0 113 -60 176.5t-180 63.5q-140 0 -204 -80q-58 -75 -58 -236v-999h-157v877h-148z" />
<glyph unicode="&#xe0;" horiz-adv-x="1038" d="M104 307q0 155 101 245.5t293 90.5q110 0 211 -27v54q0 105 -47 161q-58 68 -191 68q-145 0 -278 -65l-3 116q135 62 297 62q216 0 308 -105q71 -80 71 -235v-482q0 -46 11.5 -66t42.5 -20t61 19l-6 -103q-44 -28 -109 -28q-130 0 -145 114q-37 -59 -111 -91.5 t-159 -32.5q-157 0 -252 85.5t-95 239.5zM260 315q0 -106 59.5 -163.5t151.5 -57.5q123 0 184 74q54 69 54 190v150q-94 24 -195 24q-254 0 -254 -217zM340 1278q0 36 23 56t65 20q67 0 143.5 -56.5t143.5 -146.5l-23 -47q-128 113 -248 113q-32 0 -77 -15q-10 12 -18.5 36 t-8.5 40z" />
<glyph unicode="&#xe1;" horiz-adv-x="1038" d="M104 307q0 155 101 245.5t293 90.5q110 0 211 -27v54q0 105 -47 161q-58 68 -191 68q-145 0 -278 -65l-3 116q135 62 297 62q216 0 308 -105q71 -80 71 -235v-482q0 -46 11.5 -66t42.5 -20t61 19l-6 -103q-44 -28 -109 -28q-130 0 -145 114q-37 -59 -111 -91.5 t-159 -32.5q-157 0 -252 85.5t-95 239.5zM260 315q0 -106 59.5 -163.5t151.5 -57.5q123 0 184 74q54 69 54 190v150q-94 24 -195 24q-254 0 -254 -217zM322 1151q67 90 143 146.5t143 56.5q42 0 65 -20t23 -56q0 -16 -8 -40.5t-18 -35.5q-45 15 -78 15q-120 0 -248 -113z " />
<glyph unicode="&#xe2;" horiz-adv-x="1038" d="M104 307q0 155 101 245.5t293 90.5q110 0 211 -27v54q0 105 -47 161q-58 68 -191 68q-145 0 -278 -65l-3 116q135 62 297 62q216 0 308 -105q71 -80 71 -235v-482q0 -46 11.5 -66t42.5 -20t61 19l-6 -103q-44 -28 -109 -28q-130 0 -145 114q-37 -59 -111 -91.5 t-159 -32.5q-157 0 -252 85.5t-95 239.5zM260 315q0 -106 59.5 -163.5t151.5 -57.5q123 0 184 74q54 69 54 190v150q-94 24 -195 24q-254 0 -254 -217zM274 1118l156 201q18 23 29.5 30t32.5 7h47q20 0 31.5 -7.5t29.5 -29.5l156 -201h-121l-119 154l-121 -154h-121z" />
<glyph unicode="&#xe3;" horiz-adv-x="1038" d="M104 307q0 155 101 245.5t293 90.5q110 0 211 -27v54q0 105 -47 161q-58 68 -191 68q-145 0 -278 -65l-3 116q135 62 297 62q216 0 308 -105q71 -80 71 -235v-482q0 -46 11.5 -66t42.5 -20t61 19l-6 -103q-44 -28 -109 -28q-130 0 -145 114q-37 -59 -111 -91.5 t-159 -32.5q-157 0 -252 85.5t-95 239.5zM260 315q0 -106 59.5 -163.5t151.5 -57.5q123 0 184 74q54 69 54 190v150q-94 24 -195 24q-254 0 -254 -217zM272 1147q10 182 144 182q46 0 106.5 -38t93.5 -38q48 0 70 76h62q-10 -182 -144 -182q-49 0 -110 38t-91 38 q-47 0 -69 -76h-62z" />
<glyph unicode="&#xe4;" horiz-adv-x="1038" d="M104 307q0 155 101 245.5t293 90.5q110 0 211 -27v54q0 105 -47 161q-58 68 -191 68q-145 0 -278 -65l-3 116q135 62 297 62q216 0 308 -105q71 -80 71 -235v-482q0 -46 11.5 -66t42.5 -20t61 19l-6 -103q-44 -28 -109 -28q-130 0 -145 114q-37 -59 -111 -91.5 t-159 -32.5q-157 0 -252 85.5t-95 239.5zM260 315q0 -106 59.5 -163.5t151.5 -57.5q123 0 184 74q54 69 54 190v150q-94 24 -195 24q-254 0 -254 -217zM260 1253q0 43 29.5 73t72.5 30q41 0 70 -30t29 -73t-28 -70.5t-71 -27.5t-72.5 28.5t-29.5 69.5zM567 1253q0 43 29 73 t70 30q43 0 72.5 -30t29.5 -73q0 -41 -29.5 -69.5t-72.5 -28.5t-71 27.5t-28 70.5z" />
<glyph unicode="&#xe5;" horiz-adv-x="1038" d="M104 307q0 155 101 245.5t293 90.5q110 0 211 -27v54q0 105 -47 161q-58 68 -191 68q-145 0 -278 -65l-3 116q135 62 297 62q216 0 308 -105q71 -80 71 -235v-482q0 -46 11.5 -66t42.5 -20t61 19l-6 -103q-44 -28 -109 -28q-130 0 -145 114q-37 -59 -111 -91.5 t-159 -32.5q-157 0 -252 85.5t-95 239.5zM260 315q0 -106 59.5 -163.5t151.5 -57.5q123 0 184 74q54 69 54 190v150q-94 24 -195 24q-254 0 -254 -217zM350 1276q0 72 49 118t119 46t119 -46t49 -118t-49 -118t-119 -46t-119 46t-49 118zM432 1276q0 -39 23 -65.5t63 -26.5 t63 26.5t23 65.5t-23 65.5t-63 26.5t-63 -26.5t-23 -65.5z" />
<glyph unicode="&#xe6;" horiz-adv-x="1624" d="M104 307q0 166 107.5 249t286.5 83q110 0 211 -27v58q0 105 -47 161q-58 68 -191 68q-145 0 -278 -65l-3 116q135 62 297 62q252 0 334 -144q113 144 318 144q180 0 285.5 -124t105.5 -339q0 -56 -21.5 -79.5t-76.5 -23.5h-564q9 -165 90 -255.5t224 -90.5q80 0 164 27 t145 68l-6 -125q-55 -39 -146 -63.5t-178 -24.5q-259 0 -373 188q-39 -95 -132.5 -141.5t-204.5 -46.5q-157 0 -252 85.5t-95 239.5zM260 315q0 -102 56.5 -161.5t154.5 -59.5q123 0 184 74q54 69 54 190v148q-86 22 -195 22q-122 0 -188 -53t-66 -160zM868 555h494 q16 0 16 18q0 151 -61.5 238.5t-183.5 87.5q-119 0 -187.5 -87t-77.5 -257z" />
<glyph unicode="&#xe7;" horiz-adv-x="940" d="M82 498q0 238 115.5 376t316.5 138q173 0 272 -111q57 -63 78 -153l-143 -33q-47 182 -207 182q-130 0 -201 -104.5t-71 -286.5q0 -406 309 -406q148 0 274 88l-6 -122q-51 -37 -131 -60.5t-162 -23.5h-26q-11 -22 -11 -33q0 -18 30.5 -31.5t67 -22.5t67 -35t30.5 -67 q0 -66 -58.5 -103.5t-176.5 -37.5l-17 59q156 11 156 64q0 23 -30 38.5t-65.5 23t-65.5 25t-30 44.5q0 31 33 84q-171 28 -259.5 158.5t-88.5 349.5z" />
<glyph unicode="&#xe8;" horiz-adv-x="999" d="M82 492q0 247 116 383.5t314 136.5q180 0 286.5 -126t106.5 -341q0 -55 -22 -79t-76 -24h-565q9 -164 90 -253t225 -89q80 0 164 27t145 68l-6 -125q-55 -39 -145.5 -63.5t-177.5 -24.5q-222 0 -338.5 137t-116.5 373zM242 551h495q17 0 17 18q0 151 -63 240.5t-185 89.5 q-118 0 -186.5 -89t-77.5 -259zM338 1278q0 36 23 56t65 20q67 0 143.5 -56.5t143.5 -146.5l-23 -47q-128 113 -248 113q-32 0 -77 -15q-10 12 -18.5 36t-8.5 40z" />
<glyph unicode="&#xe9;" horiz-adv-x="999" d="M82 492q0 247 116 383.5t314 136.5q180 0 286.5 -126t106.5 -341q0 -55 -22 -79t-76 -24h-565q9 -164 90 -253t225 -89q80 0 164 27t145 68l-6 -125q-55 -39 -145.5 -63.5t-177.5 -24.5q-222 0 -338.5 137t-116.5 373zM242 551h495q17 0 17 18q0 151 -63 240.5t-185 89.5 q-118 0 -186.5 -89t-77.5 -259zM293 1151q67 90 143.5 146.5t143.5 56.5q42 0 65 -20t23 -56q0 -16 -8.5 -40t-18.5 -36q-45 15 -78 15q-120 0 -248 -113z" />
<glyph unicode="&#xea;" horiz-adv-x="999" d="M82 492q0 247 116 383.5t314 136.5q180 0 286.5 -126t106.5 -341q0 -55 -22 -79t-76 -24h-565q9 -164 90 -253t225 -89q80 0 164 27t145 68l-6 -125q-55 -39 -145.5 -63.5t-177.5 -24.5q-222 0 -338.5 137t-116.5 373zM242 551h495q17 0 17 18q0 151 -63 240.5t-185 89.5 q-118 0 -186.5 -89t-77.5 -259zM266 1118l156 201q18 23 29 30t32 7h47q20 0 32 -7.5t30 -29.5l156 -201h-121l-119 154l-121 -154h-121z" />
<glyph unicode="&#xeb;" horiz-adv-x="999" d="M82 492q0 247 116 383.5t314 136.5q180 0 286.5 -126t106.5 -341q0 -55 -22 -79t-76 -24h-565q9 -164 90 -253t225 -89q80 0 164 27t145 68l-6 -125q-55 -39 -145.5 -63.5t-177.5 -24.5q-222 0 -338.5 137t-116.5 373zM242 551h495q17 0 17 18q0 151 -63 240.5t-185 89.5 q-118 0 -186.5 -89t-77.5 -259zM252 1253q0 43 29.5 73t72.5 30q41 0 70 -30t29 -73t-28 -70.5t-71 -27.5t-72.5 28.5t-29.5 69.5zM559 1253q0 43 28.5 73t69.5 30q43 0 73 -30t30 -73q0 -41 -30 -69.5t-73 -28.5t-70.5 27.5t-27.5 70.5z" />
<glyph unicode="&#xec;" horiz-adv-x="542" d="M49 1278q0 36 23 56t65 20q67 0 143.5 -56.5t143.5 -146.5l-23 -47q-128 113 -247 113q-33 0 -78 -15q-10 12 -18.5 36t-8.5 40zM72 877v116h272v-803q0 -50 11 -68t42 -18q29 0 62 19l-8 -103q-44 -28 -111 -28q-80 0 -119 45q-35 41 -35 129v711h-114z" />
<glyph unicode="&#xed;" horiz-adv-x="542" d="M37 1151q67 90 143.5 146.5t143.5 56.5q42 0 65 -20t23 -56q0 -16 -8.5 -40t-18.5 -36q-45 15 -78 15q-120 0 -248 -113zM72 877v116h272v-803q0 -50 11 -68t42 -18q29 0 62 19l-8 -103q-44 -28 -111 -28q-80 0 -119 45q-35 41 -35 129v711h-114z" />
<glyph unicode="&#xee;" horiz-adv-x="542" d="M27 1118l155 201q18 23 29.5 30t32.5 7h47q20 0 31.5 -7.5t29.5 -29.5l156 -201h-121l-119 154l-121 -154h-120zM72 877v116h272v-803q0 -50 11 -68t42 -18q29 0 62 19l-8 -103q-44 -28 -111 -28q-80 0 -119 45q-35 41 -35 129v711h-114z" />
<glyph unicode="&#xef;" horiz-adv-x="542" d="M8 1253q0 43 30 73t73 30q41 0 69.5 -30t28.5 -73t-27.5 -70.5t-70.5 -27.5t-73 28.5t-30 69.5zM72 877v116h272v-803q0 -50 11 -68t42 -18q29 0 62 19l-8 -103q-44 -28 -111 -28q-80 0 -119 45q-35 41 -35 129v711h-114zM315 1253q0 43 29 73t70 30q43 0 72.5 -30 t29.5 -73q0 -41 -29.5 -69.5t-72.5 -28.5t-71 27.5t-28 70.5z" />
<glyph unicode="&#xf0;" d="M104 424q0 192 113 306t297 114q73 0 149.5 -19t129.5 -47q-28 256 -162 361l-47 -111l-90 35l53 125q-62 28 -174 31l18 96q121 0 201 -25l51 123l92 -35l-53 -127q287 -154 287 -671q0 -130 -25 -236t-76.5 -188.5t-139 -128t-204.5 -45.5q-196 0 -308 123.5 t-112 318.5zM268 424q0 -142 68.5 -234t189.5 -92q77 0 131.5 31.5t86.5 92.5t46.5 142t14.5 187q0 76 -2 113q-114 69 -242 69q-142 0 -217.5 -82.5t-75.5 -226.5z" />
<glyph unicode="&#xf1;" horiz-adv-x="1118" d="M59 877v116h220l26 -121q98 140 309 140q87 0 160 -27.5t117 -77.5q43 -49 59.5 -114t16.5 -156v-637h-158v618q0 83 -9.5 128t-41.5 79q-56 62 -172 62q-126 0 -193 -76q-34 -39 -47.5 -93.5t-13.5 -144.5v-573h-158v877h-115zM328 1147q10 182 143 182q46 0 107 -38 t94 -38q47 0 69 76h62q-11 -182 -144 -182q-49 0 -109.5 38t-90.5 38q-48 0 -70 -76h-61z" />
<glyph unicode="&#xf2;" horiz-adv-x="1036" d="M82 496q0 245 116.5 380.5t319.5 135.5t319.5 -135.5t116.5 -380.5t-116.5 -379.5t-319.5 -134.5t-319.5 134.5t-116.5 379.5zM242 496q0 -202 71.5 -301t204.5 -99t205 99t72 301t-72 301.5t-205 99.5q-132 0 -204 -99.5t-72 -301.5zM346 1278q0 36 23 56t65 20 q67 0 143.5 -56.5t143.5 -146.5l-23 -47q-128 113 -247 113q-33 0 -78 -15q-10 12 -18.5 36t-8.5 40z" />
<glyph unicode="&#xf3;" horiz-adv-x="1036" d="M82 496q0 245 116.5 380.5t319.5 135.5t319.5 -135.5t116.5 -380.5t-116.5 -379.5t-319.5 -134.5t-319.5 134.5t-116.5 379.5zM242 496q0 -202 71.5 -301t204.5 -99t205 99t72 301t-72 301.5t-205 99.5q-132 0 -204 -99.5t-72 -301.5zM311 1151q67 90 143.5 146.5 t143.5 56.5q42 0 65 -20t23 -56q0 -16 -8.5 -40t-18.5 -36q-45 15 -77 15q-120 0 -248 -113z" />
<glyph unicode="&#xf4;" horiz-adv-x="1036" d="M82 496q0 245 116.5 380.5t319.5 135.5t319.5 -135.5t116.5 -380.5t-116.5 -379.5t-319.5 -134.5t-319.5 134.5t-116.5 379.5zM242 496q0 -202 71.5 -301t204.5 -99t205 99t72 301t-72 301.5t-205 99.5q-132 0 -204 -99.5t-72 -301.5zM279 1118l155 201q18 23 29.5 30 t32.5 7h47q20 0 31.5 -7.5t29.5 -29.5l156 -201h-121l-119 154l-121 -154h-120z" />
<glyph unicode="&#xf5;" horiz-adv-x="1036" d="M82 496q0 245 116.5 380.5t319.5 135.5t319.5 -135.5t116.5 -380.5t-116.5 -379.5t-319.5 -134.5t-319.5 134.5t-116.5 379.5zM242 496q0 -202 71.5 -301t204.5 -99t205 99t72 301t-72 301.5t-205 99.5q-132 0 -204 -99.5t-72 -301.5zM281 1147q11 182 143 182 q46 0 107 -38t94 -38q47 0 69 76h62q-10 -182 -144 -182q-49 0 -109.5 38t-90.5 38q-48 0 -70 -76h-61z" />
<glyph unicode="&#xf6;" horiz-adv-x="1036" d="M82 496q0 245 116.5 380.5t319.5 135.5t319.5 -135.5t116.5 -380.5t-116.5 -379.5t-319.5 -134.5t-319.5 134.5t-116.5 379.5zM242 496q0 -202 71.5 -301t204.5 -99t205 99t72 301t-72 301.5t-205 99.5q-132 0 -204 -99.5t-72 -301.5zM264 1253q0 43 30 73t73 30 q41 0 69.5 -30t28.5 -73t-27.5 -70.5t-70.5 -27.5t-73 28.5t-30 69.5zM571 1253q0 43 29 73t70 30q43 0 72.5 -30t29.5 -73q0 -41 -29.5 -69.5t-72.5 -28.5t-71 27.5t-28 70.5z" />
<glyph unicode="&#xf7;" horiz-adv-x="1044" d="M209 598v117h629v-117h-629zM432 401q0 38 27 64.5t65 26.5t64 -26.5t26 -64.5t-26 -65t-64 -27t-65 27t-27 65zM432 913q0 38 27 64.5t65 26.5t64 -26.5t26 -64.5t-26 -65t-64 -27t-65 27t-27 65z" />
<glyph unicode="&#xf8;" horiz-adv-x="1036" d="M82 496q0 245 116.5 380.5t319.5 135.5q87 0 166 -29l64 141h110l-86 -188q182 -133 182 -440q0 -245 -116.5 -379.5t-319.5 -134.5q-90 0 -166 28l-69 -151h-111l90 198q-180 128 -180 439zM242 496q0 -206 80 -310l311 686q-55 25 -115 25q-132 0 -204 -99.5 t-72 -301.5zM401 121q55 -25 117 -25q133 0 205 99t72 301q0 209 -80 313z" />
<glyph unicode="&#xf9;" horiz-adv-x="1122" d="M147 356v637h158v-618q0 -84 9.5 -128t41.5 -79q56 -62 172 -62q126 0 193 76q34 39 47.5 93.5t13.5 144.5v573h158v-800q0 -50 12 -69.5t43 -19.5q27 0 60 19l-6 -103q-44 -28 -111 -28q-120 0 -143 114q-102 -124 -295 -124q-184 0 -277 104q-43 49 -59.5 114 t-16.5 156zM354 1278q0 36 23 56t65 20q67 0 143.5 -56.5t143.5 -146.5l-22 -47q-128 113 -248 113q-33 0 -78 -15q-10 12 -18.5 36t-8.5 40z" />
<glyph unicode="&#xfa;" horiz-adv-x="1122" d="M147 356v637h158v-618q0 -84 9.5 -128t41.5 -79q56 -62 172 -62q126 0 193 76q34 39 47.5 93.5t13.5 144.5v573h158v-800q0 -50 12 -69.5t43 -19.5q27 0 60 19l-6 -103q-44 -28 -111 -28q-120 0 -143 114q-102 -124 -295 -124q-184 0 -277 104q-43 49 -59.5 114 t-16.5 156zM360 1151q67 90 143.5 146.5t143.5 56.5q42 0 65 -20t23 -56q0 -16 -8 -40.5t-18 -35.5q-45 15 -78 15q-120 0 -248 -113z" />
<glyph unicode="&#xfb;" horiz-adv-x="1122" d="M147 356v637h158v-618q0 -84 9.5 -128t41.5 -79q56 -62 172 -62q126 0 193 76q34 39 47.5 93.5t13.5 144.5v573h158v-800q0 -50 12 -69.5t43 -19.5q27 0 60 19l-6 -103q-44 -28 -111 -28q-120 0 -143 114q-102 -124 -295 -124q-184 0 -277 104q-43 49 -59.5 114 t-16.5 156zM301 1118l156 201q18 23 29 30t32 7h47q20 0 32 -7.5t30 -29.5l155 -201h-120l-119 154l-121 -154h-121z" />
<glyph unicode="&#xfc;" horiz-adv-x="1122" d="M147 356v637h158v-618q0 -84 9.5 -128t41.5 -79q56 -62 172 -62q126 0 193 76q34 39 47.5 93.5t13.5 144.5v573h158v-800q0 -50 12 -69.5t43 -19.5q27 0 60 19l-6 -103q-44 -28 -111 -28q-120 0 -143 114q-102 -124 -295 -124q-184 0 -277 104q-43 49 -59.5 114 t-16.5 156zM289 1253q0 43 29.5 73t72.5 30q41 0 69.5 -30t28.5 -73t-27.5 -70.5t-70.5 -27.5t-72.5 28.5t-29.5 69.5zM596 1253q0 43 28.5 73t69.5 30q43 0 73 -30t30 -73q0 -41 -30 -69.5t-73 -28.5t-70.5 27.5t-27.5 70.5z" />
<glyph unicode="&#xfd;" horiz-adv-x="1093" d="M147 356v637h158v-618q0 -84 9.5 -128t41.5 -79q56 -62 172 -62q126 0 193 76q34 39 47.5 93.5t13.5 144.5v573h158v-946q0 -138 -16 -214t-60 -134q-103 -133 -344 -133q-185 0 -325 72l4 124q145 -79 309 -79q150 0 219 84q32 37 43.5 94t11.5 162v73 q-96 -114 -282 -114q-184 0 -277 104q-43 49 -59.5 114t-16.5 156zM371 1151q67 90 143 146.5t143 56.5q42 0 65 -20t23 -56q0 -16 -8 -40.5t-18 -35.5q-45 15 -78 15q-120 0 -248 -113z" />
<glyph unicode="&#xfe;" horiz-adv-x="1077" d="M170 -408v1809h158v-506q94 117 268 117q102 0 180 -39.5t125 -110.5t70.5 -162.5t23.5 -201.5t-23.5 -202t-70.5 -163t-125 -111t-180 -40q-180 0 -268 116v-506h-158zM328 399q0 -151 55 -219q64 -80 190 -80q129 0 196 100.5t67 297.5q0 395 -263 395q-126 0 -190 -80 q-55 -68 -55 -217v-197z" />
<glyph unicode="&#xff;" horiz-adv-x="1093" d="M147 356v637h158v-618q0 -84 9.5 -128t41.5 -79q56 -62 172 -62q126 0 193 76q34 39 47.5 93.5t13.5 144.5v573h158v-946q0 -138 -16 -214t-60 -134q-103 -133 -344 -133q-185 0 -325 72l4 124q145 -79 309 -79q150 0 219 84q32 37 43.5 94t11.5 162v73 q-96 -114 -282 -114q-184 0 -277 104q-43 49 -59.5 114t-16.5 156zM289 1253q0 43 29.5 73t72.5 30q41 0 69.5 -30t28.5 -73t-27.5 -70.5t-70.5 -27.5t-72.5 28.5t-29.5 69.5zM596 1253q0 43 28.5 73t69.5 30q43 0 73 -30t30 -73q0 -41 -30 -69.5t-73 -28.5t-70.5 27.5 t-27.5 70.5z" />
<glyph unicode="&#x152;" horiz-adv-x="1765" d="M96 649q0 321 136.5 493.5t388.5 172.5q59 0 161 -9.5t170 -9.5h676v-120h-567v-459h459v-117h-459v-479h612l-16 -121h-699q-59 0 -167.5 -8t-169.5 -8q-252 0 -388.5 172t-136.5 493zM274 649q0 -538 347 -538q179 0 233 51q22 20 29.5 45.5t7.5 75.5v735q0 78 -37 112 q-58 58 -233 58q-347 0 -347 -539z" />
<glyph unicode="&#x153;" horiz-adv-x="1712" d="M82 496q0 245 116.5 380.5t319.5 135.5q118 0 209 -48t147 -139q56 91 146 139t205 48q180 0 286.5 -126t106.5 -341q0 -55 -22 -79t-76 -24h-566q9 -164 90.5 -253t225.5 -89q80 0 164 27t145 68l-6 -125q-55 -39 -146 -63.5t-178 -24.5q-259 0 -375 184 q-113 -184 -356 -184q-203 0 -319.5 134.5t-116.5 379.5zM242 496q0 -202 71.5 -301t204.5 -99t205 99t72 301t-72 301.5t-205 99.5q-132 0 -204 -99.5t-72 -301.5zM954 551h496q16 0 16 18q0 151 -62.5 240.5t-184.5 89.5q-118 0 -187 -89t-78 -259z" />
<glyph unicode="&#x178;" d="M43 1296h180l285 -577q41 -80 47 -131h2q5 39 45 125l281 583h159l-413 -843v-453h-170v457zM293 1534q0 43 29.5 72.5t72.5 29.5q41 0 70 -29.5t29 -72.5t-28 -70.5t-71 -27.5t-72.5 28.5t-29.5 69.5zM600 1534q0 43 28.5 72.5t69.5 29.5q43 0 73 -29.5t30 -72.5 q0 -41 -30 -69.5t-73 -28.5t-70.5 27.5t-27.5 70.5z" />
<glyph unicode="&#x2c6;" horiz-adv-x="542" d="M33 1118l155 201q18 23 29.5 30t32.5 7h47q20 0 31.5 -7.5t29.5 -29.5l156 -201h-121l-119 154l-120 -154h-121z" />
<glyph unicode="&#x2dc;" horiz-adv-x="542" d="M35 1147q11 182 143 182q46 0 107 -38t94 -38q48 0 70 76h61q-10 -182 -143 -182q-49 0 -110 38t-91 38q-48 0 -70 -76h-61z" />
<glyph unicode="&#x2000;" horiz-adv-x="864" />
<glyph unicode="&#x2001;" horiz-adv-x="1729" />
<glyph unicode="&#x2002;" horiz-adv-x="864" />
<glyph unicode="&#x2003;" horiz-adv-x="1729" />
<glyph unicode="&#x2004;" horiz-adv-x="576" />
<glyph unicode="&#x2005;" horiz-adv-x="432" />
<glyph unicode="&#x2006;" horiz-adv-x="288" />
<glyph unicode="&#x2007;" horiz-adv-x="288" />
<glyph unicode="&#x2008;" horiz-adv-x="216" />
<glyph unicode="&#x2009;" horiz-adv-x="345" />
<glyph unicode="&#x200a;" horiz-adv-x="96" />
<glyph unicode="&#x2010;" horiz-adv-x="692" d="M117 426v129h458v-129h-458z" />
<glyph unicode="&#x2011;" horiz-adv-x="692" d="M117 426v129h458v-129h-458z" />
<glyph unicode="&#x2012;" horiz-adv-x="692" d="M117 426v129h458v-129h-458z" />
<glyph unicode="&#x2013;" horiz-adv-x="1024" d="M0 510v102h1024v-102h-1024z" />
<glyph unicode="&#x2014;" horiz-adv-x="2048" d="M0 510v102h2048v-102h-2048z" />
<glyph unicode="&#x2018;" horiz-adv-x="417" d="M106 997q0 89 54.5 177.5t144.5 140.5l45 -49q-51 -41 -86 -94t-39 -97q40 -9 64 -36t24 -64q0 -41 -26.5 -68.5t-71.5 -27.5q-51 0 -80 32t-29 86z" />
<glyph unicode="&#x2019;" horiz-adv-x="417" d="M68 928q51 42 86 94t39 96q-40 9 -64.5 36.5t-24.5 64.5q0 41 27 68.5t72 27.5q51 0 79.5 -32t28.5 -87q0 -89 -54 -177t-144 -140z" />
<glyph unicode="&#x201a;" horiz-adv-x="471" d="M96 -244q51 41 86 94t39 97q-40 9 -64 36t-24 64q0 41 26.5 68.5t71.5 27.5q51 0 80 -32t29 -86q0 -89 -54.5 -177.5t-144.5 -140.5z" />
<glyph unicode="&#x201c;" horiz-adv-x="692" d="M106 997q0 89 54.5 177.5t144.5 140.5l45 -49q-51 -41 -86 -94t-39 -97q40 -9 64 -36t24 -64q0 -41 -26.5 -68.5t-71.5 -27.5q-51 0 -80 32t-29 86zM381 997q0 89 54.5 177.5t144.5 140.5l45 -49q-51 -41 -86 -94t-39 -97q40 -9 64 -36t24 -64q0 -41 -27 -68.5t-72 -27.5 q-51 0 -79.5 32t-28.5 86z" />
<glyph unicode="&#x201d;" horiz-adv-x="692" d="M68 928q51 42 86 94t39 96q-40 9 -64.5 36.5t-24.5 64.5q0 41 27 68.5t72 27.5q51 0 79.5 -32t28.5 -87q0 -89 -54 -177t-144 -140zM342 928q51 42 86 94t39 96q-40 9 -64 36.5t-24 64.5q0 41 26.5 68.5t71.5 27.5q51 0 80 -32.5t29 -86.5q0 -89 -54.5 -177t-144.5 -140z " />
<glyph unicode="&#x201e;" horiz-adv-x="745" d="M96 -244q51 41 86 94t39 97q-40 9 -64 36t-24 64q0 41 26.5 68.5t71.5 27.5q51 0 80 -32t29 -86q0 -89 -54.5 -177.5t-144.5 -140.5zM371 -244q51 41 86 94t39 97q-40 9 -64 36t-24 64q0 41 26.5 68.5t71.5 27.5q51 0 79.5 -32t28.5 -86q0 -89 -54.5 -177.5 t-143.5 -140.5z" />
<glyph unicode="&#x2022;" horiz-adv-x="696" d="M141 647q0 86 61.5 147.5t147.5 61.5t147.5 -61.5t61.5 -147.5t-61.5 -147.5t-147.5 -61.5t-147.5 61.5t-61.5 147.5z" />
<glyph unicode="&#x2026;" horiz-adv-x="1157" d="M135 92q0 41 28.5 68.5t69.5 27.5q42 0 71.5 -27.5t29.5 -68.5t-30 -70.5t-71 -29.5t-69.5 29.5t-28.5 70.5zM479 92q0 41 28.5 68.5t70.5 27.5t71 -27.5t29 -68.5t-29.5 -70.5t-70.5 -29.5t-70 29.5t-29 70.5zM825 92q0 41 28 68.5t69 27.5q42 0 71 -27.5t29 -68.5 t-29.5 -70.5t-70.5 -29.5t-69 29t-28 71z" />
<glyph unicode="&#x202f;" horiz-adv-x="345" />
<glyph unicode="&#x2039;" horiz-adv-x="675" d="M172 496q0 18 21 39l282 309l35 -101l-188 -247l188 -248l-35 -98l-282 307q-21 25 -21 39z" />
<glyph unicode="&#x203a;" horiz-adv-x="675" d="M166 248l188 248l-188 247l35 101l282 -309q21 -21 21 -39q0 -14 -21 -39l-282 -307z" />
<glyph unicode="&#x205f;" horiz-adv-x="432" />
<glyph unicode="&#x20ac;" d="M33 496v104h137q0 9 -1 29t-1 30q0 7 1 21.5t1 21.5h-137v105h145q30 242 155.5 375t334.5 133q145 0 243 -75t131 -220l-147 -37q-28 101 -82 154t-149 53q-134 0 -215 -98.5t-103 -284.5h316v-105h-324v-36q0 -12 1 -34t1 -32h322v-104h-314q23 -183 106.5 -283 t247.5 -100q81 0 168.5 26.5t147.5 67.5l-6 -135q-62 -40 -154.5 -65t-181.5 -25q-219 0 -343.5 131t-154.5 383h-145z" />
<glyph unicode="&#x2122;" horiz-adv-x="1447" d="M61 1217v79h517v-79h-205v-609h-107v609h-205zM641 608v688h100l240 -538l225 538h101v-688h-101v459q-1 -5 -8 -22t-8 -19l-178 -418h-72l-192 439q-1 2 -5.5 13t-5.5 13v-465h-96z" />
<glyph unicode="&#xe000;" horiz-adv-x="993" d="M0 0v993h993v-993h-993z" />
</font>
</defs>
</svg>
